Format                         : Matroska
Format version                 : Version 2
File size                      : 8.11 GiB
Duration                       : 1h 46mn
Overall bit rate               : 10.9 Mbps


Video
ID                             : 1
Format                         : AVC
Format/Info                    : Advanced Video Codec
Format profile                 : High@L4.0
Format settings, CABAC         : Yes
Format settings, ReFrames      : 4 frames
Codec ID                       : V_MPEG4/ISO/AVC
Duration                       : 1h 46mn
Bit rate                       : 10.1 Mbps
Width                          : 1 920 pixels
Height                         : 1 088 pixels
Display aspect ratio           : 16:9
Frame rate mode                : Variable
Frame rate                     : 23.976 fps
Color space                    : YUV
Chroma subsampling             : 4:2:0
Bit depth                      : 8 bits
Scan type                      : Progressive
Bits/(Pixel*Frame)             : 0.201
Stream size                    : 7.47 GiB (92%)
Writing library                : x264 core 125
Language                       : English
Default                        : Yes
Forced                         : No
Color primaries                : BT.709-5, BT.1361, IEC 61966-2-4, SMPTE RP177
Transfer characteristics       : BT.709-5, BT.1361
Matrix coefficients            : BT.709-5, BT.1361, IEC 61966-2-4 709, SMPTE RP177

Audio
ID                             : 2
Format                         : AC-3
Format/Info                    : Audio Coding 3
Mode extension                 : CM (complete main)
Format settings, Endianness    : Big
Codec ID                       : A_AC3
Duration                       : 1h 46mn
Bit rate mode                  : Constant
Bit rate                       : 640 Kbps
Channel(s)                     : 6 channels
Channel positions              : Front: L C R, Side: L R, LFE
Sampling rate                  : 48.0 KHz
Bit depth                      : 16 bits
Compression mode               : Lossy
Stream size                    : 486 MiB (6%)
Default                        : Yes
Forced                         : No
